<svg width="1200" height="800" viewBox="0 0 1200 800" fill="none" xmlns="http://www.w3.org/2000/svg">
  <rect width="1200" height="800" rx="48" fill="url(#bg)"/>
  <circle cx="928" cy="160" r="246" fill="url(#glow1)"/>
  <circle cx="208" cy="642" r="220" fill="url(#glow2)"/>
  <text x="86" y="250" fill="#FFFFFF" font-size="78" font-family="Arial, sans-serif" font-weight="700">Apps Placeholder</text>
  <text x="86" y="316" fill="#CBD2FF" font-size="30" font-family="Arial, sans-serif">Replace with bespoke app showcase artwork.</text>
  <rect x="82" y="512" width="438" height="176" rx="34" fill="#070D2A" fill-opacity="0.5" stroke="#C6CEFF" stroke-opacity="0.22"/>
  <text x="124" y="578" fill="#AFC0FF" font-size="24" font-family="Arial, sans-serif" font-weight="700">Suggested final asset path</text>
  <text x="124" y="628" fill="#FFFFFF" font-size="34" font-family="Arial, sans-serif" font-weight="700">/assets/images/apps-feature.png</text>
  <g>
    <rect x="756" y="170" width="236" height="470" rx="44" fill="#12183F" fill-opacity="0.94" stroke="#DCE5FF" stroke-opacity="0.28" stroke-width="10"/>
    <rect x="828" y="194" width="92" height="16" rx="8" fill="#FFFFFF" fill-opacity="0.18"/>
    <rect x="788" y="274" width="168" height="60" rx="18" fill="#748AFF" fill-opacity="0.32"/>
    <rect x="788" y="362" width="168" height="60" rx="18" fill="#8F6DFF" fill-opacity="0.28"/>
    <rect x="788" y="450" width="168" height="60" rx="18" fill="#4FD4D5" fill-opacity="0.24"/>
    <rect x="788" y="538" width="120" height="40" rx="20" fill="#FFFFFF" fill-opacity="0.12"/>
  </g>
  <defs>
    <linearGradient id="bg" x1="64" y1="44" x2="1108" y2="758" gradientUnits="userSpaceOnUse">
      <stop stop-color="#2A2E7B"/>
      <stop offset="0.48" stop-color="#1A205E"/>
      <stop offset="1" stop-color="#0A1130"/>
    </linearGradient>
    <radialGradient id="glow1" cx="0" cy="0" r="1" gradientUnits="userSpaceOnUse" gradientTransform="translate(928 160) rotate(90) scale(246)">
      <stop stop-color="#8A72FF" stop-opacity="0.74"/>
      <stop offset="1" stop-color="#8A72FF" stop-opacity="0"/>
    </radialGradient>
    <radialGradient id="glow2" cx="0" cy="0" r="1" gradientUnits="userSpaceOnUse" gradientTransform="translate(208 642) rotate(90) scale(220)">
      <stop stop-color="#4FD4D5" stop-opacity="0.26"/>
      <stop offset="1" stop-color="#4FD4D5" stop-opacity="0"/>
    </radialGradient>
  </defs>
</svg>
