<svg width="1200" height="800" viewBox="0 0 1200 800" fill="none" xmlns="http://www.w3.org/2000/svg">
  <rect width="1200" height="800" rx="48" fill="url(#bg)"/>
  <g opacity="0.8">
    <circle cx="982" cy="152" r="228" fill="url(#glow1)"/>
    <circle cx="240" cy="712" r="280" fill="url(#glow2)"/>
  </g>
  <rect x="84" y="92" width="260" height="64" rx="32" fill="#FFFFFF" fill-opacity="0.08"/>
  <text x="116" y="134" fill="#EDEFFF" font-size="28" font-family="Arial, sans-serif" font-weight="700">Northreach Studios</text>
  <text x="84" y="254" fill="#FFFFFF" font-size="78" font-family="Arial, sans-serif" font-weight="700">Games Placeholder</text>
  <text x="84" y="316" fill="#C8D0FF" font-size="30" font-family="Arial, sans-serif">Replace with bespoke game showcase artwork.</text>
  <rect x="84" y="520" width="430" height="172" rx="34" fill="#070D2A" fill-opacity="0.48" stroke="#C6CEFF" stroke-opacity="0.22"/>
  <text x="126" y="584" fill="#AFC0FF" font-size="24" font-family="Arial, sans-serif" font-weight="700">Suggested final asset path</text>
  <text x="126" y="632" fill="#FFFFFF" font-size="34" font-family="Arial, sans-serif" font-weight="700">/assets/images/games-feature.png</text>
  <path d="M734 576C806 470 930 418 1032 432C1092 441 1144 472 1168 516V656H716C714 628 719 598 734 576Z" fill="#78A4FF" fill-opacity="0.16"/>
  <path d="M814 548C860 484 932 452 992 460C1047 468 1090 510 1110 562" stroke="#FFFFFF" stroke-opacity="0.32" stroke-width="18" stroke-linecap="round"/>
  <path d="M730 640L840 530L1004 530L1108 640" stroke="#EFF2FF" stroke-opacity="0.48" stroke-width="22" stroke-linecap="round" stroke-linejoin="round"/>
  <defs>
    <linearGradient id="bg" x1="84" y1="38" x2="1112" y2="766" gradientUnits="userSpaceOnUse">
      <stop stop-color="#2B2E7D"/>
      <stop offset="0.48" stop-color="#1A1E58"/>
      <stop offset="1" stop-color="#0B1234"/>
    </linearGradient>
    <radialGradient id="glow1" cx="0" cy="0" r="1" gradientUnits="userSpaceOnUse" gradientTransform="translate(982 152) rotate(90) scale(228)">
      <stop stop-color="#8B72FF" stop-opacity="0.78"/>
      <stop offset="1" stop-color="#8B72FF" stop-opacity="0"/>
    </radialGradient>
    <radialGradient id="glow2" cx="0" cy="0" r="1" gradientUnits="userSpaceOnUse" gradientTransform="translate(240 712) rotate(90) scale(280)">
      <stop stop-color="#4FD4D5" stop-opacity="0.28"/>
      <stop offset="1" stop-color="#4FD4D5" stop-opacity="0"/>
    </radialGradient>
  </defs>
</svg>
